<svg width="161" height="82" viewBox="0 0 161 82" fill="none" xmlns="http://www.w3.org/2000/svg">
<path fill-rule="evenodd" clip-rule="evenodd" d="M76.708 74.1275C76.708 78.8981 79.7987 81.778 83.3081 81.789C84.9988 81.7943 86.6833 81.1116 87.9338 79.7615C89.1905 78.4047 89.919 76.4767 89.919 74.1275L89.919 7.09395C89.919 4.8838 89.1571 3.07723 87.8739 1.82409C86.6096 0.58939 84.9432 -0.00508141 83.3081 3.27122e-05C81.6734 0.00513936 80.0117 0.609488 78.7517 1.84257C77.4725 3.09445 76.708 4.89484 76.708 7.09394L76.708 74.1275ZM85.421 77.4341C85.9991 76.8099 86.4939 75.7596 86.4939 74.1275L86.4939 7.09395C86.4939 5.70121 86.0325 4.81327 85.4809 4.27452C84.9103 3.71734 84.1302 3.42256 83.3188 3.42509C82.507 3.42762 81.7223 3.72781 81.1474 4.29044C80.5917 4.83426 80.133 5.72073 80.133 7.09394L80.133 74.1275C80.133 77.2583 81.9352 78.3596 83.3188 78.3639C84.0746 78.3663 84.8365 78.0651 85.421 77.4341Z" fill="#252525"/>
<path d="M98.4817 8.26739C98.4817 6.77761 98.9326 6.06753 99.2996 5.75227C99.6684 5.4353 100.223 5.28215 100.928 5.43701C102.351 5.74943 104.109 7.33232 104.109 10.2246L104.109 72.3041C104.109 74.531 104.849 76.3377 106.263 77.4656C107.655 78.5753 109.418 78.8016 111.013 78.4584C114.187 77.7755 117.197 74.7635 117.197 70.3469V5.4539C117.197 4.5081 116.431 3.74137 115.485 3.74137C114.539 3.74137 113.772 4.5081 113.772 5.4539V70.3469C113.772 73.0863 111.951 74.7531 110.293 75.11C109.472 75.2867 108.819 75.123 108.399 74.7878C108.001 74.4707 107.534 73.7774 107.534 72.3041L107.534 10.2246C107.534 5.83855 104.766 2.77311 101.662 2.09164C100.105 1.74956 98.3958 2.01307 97.0674 3.15444C95.7371 4.29751 95.0566 6.08744 95.0566 8.26739V79.6435C95.0566 80.5893 95.8233 81.356 96.7691 81.356C97.7149 81.356 98.4817 80.5893 98.4817 79.6435V8.26739Z" fill="#252525"/>
<path d="M134.323 64.3416C134.323 65.7242 134.764 66.3221 135.097 66.5747C135.457 66.8476 136.049 66.9904 136.833 66.7892C138.409 66.3847 140.194 64.6873 140.194 61.8951V44.4027C140.194 43.4569 140.961 42.6902 141.907 42.6902C142.853 42.6902 143.619 43.4569 143.619 44.4027V61.8951C143.619 66.2702 140.756 69.3185 137.684 70.1068C136.144 70.5019 134.411 70.3527 133.028 69.304C131.618 68.2349 130.898 66.4815 130.898 64.3416L130.898 17.3691C130.898 15.2438 131.624 13.5042 133.053 12.461C134.447 11.444 136.177 11.3342 137.699 11.7397C140.727 12.5465 143.619 15.5431 143.619 19.8156L143.619 37.3079C143.619 38.2537 142.853 39.0204 141.907 39.0204C140.961 39.0204 140.194 38.2537 140.194 37.3079L140.194 19.8156C140.194 17.1882 138.438 15.481 136.817 15.0493C136.015 14.8355 135.422 14.9727 135.072 15.2277C134.759 15.4565 134.323 16.0138 134.323 17.3691L134.323 64.3416Z" fill="#252525"/>
<path fill-rule="evenodd" clip-rule="evenodd" d="M160.5 52.025C160.5 56.2984 157.584 59.2184 154.56 59.9848C153.045 60.3687 151.333 60.2491 149.951 59.2669C148.523 58.2516 147.778 56.5529 147.778 54.4715V28.5428C147.778 26.3368 148.478 24.5269 149.867 23.4042C151.249 22.2872 153.003 22.1047 154.57 22.512C157.689 23.3227 160.5 26.5052 160.5 30.9893V52.025ZM151.203 28.5428C151.203 27.0329 151.666 26.3541 152.02 26.0681C152.381 25.7764 152.952 25.6303 153.708 25.827C155.238 26.2245 157.075 27.9812 157.075 30.9893V52.025C157.075 54.6107 155.343 56.253 153.718 56.6646C152.909 56.8697 152.297 56.7322 151.936 56.4753C151.621 56.2516 151.203 55.7292 151.203 54.4715V28.5428Z" fill="#252525"/>
<path d="M124.047 11.5701C124.993 11.5701 125.76 12.3369 125.76 13.2827V73.2215C125.76 74.1673 124.993 74.934 124.047 74.934C123.102 74.934 122.335 74.1673 122.335 73.2215V13.2827C122.335 12.3369 123.102 11.5701 124.047 11.5701Z" fill="#252525"/>
<path d="M72.1023 4.10529L69.7355 4.33433V79.6436C69.7355 80.5894 68.9688 81.3561 68.0229 81.3561C67.0771 81.3561 66.3104 80.5894 66.3104 79.6436V4.66579L64.5182 4.83924C63.5768 4.93034 62.7397 4.24103 62.6486 3.29962C62.5575 2.35821 63.2468 1.52119 64.1883 1.43009L71.7724 0.69614C72.7138 0.605036 73.5508 1.29435 73.6419 2.23576C73.733 3.17717 73.0437 4.01419 72.1023 4.10529Z" fill="#252525"/>
<path d="M59.8272 4.71998C59.8272 3.77417 59.0605 3.00744 58.1147 3.00744C57.1689 3.00744 56.4021 3.77417 56.4021 4.71998V72.4875C56.4021 73.6939 56.0105 74.2066 55.722 74.4256C55.3996 74.6704 54.8625 74.8096 54.1487 74.6487C52.7122 74.325 51.1422 72.89 51.1422 70.5304V12.2959C51.1422 10.2406 50.4182 8.56315 49.0083 7.5597C47.648 6.59155 45.9693 6.48218 44.4989 6.83985C41.5973 7.54565 38.6651 10.2797 38.6651 14.2531V71.9983C38.6651 72.9441 39.4319 73.7108 40.3777 73.7108C41.3235 73.7108 42.0902 72.9441 42.0902 71.9983V14.2531C42.0902 12.1103 43.684 10.563 45.3084 10.1679C46.101 9.9751 46.6853 10.1104 47.0223 10.3502C47.3096 10.5547 47.7171 11.0485 47.7171 12.2959V70.5304C47.7171 74.5846 50.4896 77.3351 53.3957 77.99C54.8531 78.3184 56.4873 78.1451 57.7933 77.1535C59.1332 76.136 59.8272 74.4881 59.8272 72.4875V4.71998Z" fill="#252525"/>
<path d="M32.0596 18.1804C33.0054 18.1804 33.7722 18.9471 33.7722 19.893L33.7722 68.5731C33.7722 69.5189 33.0054 70.2857 32.0596 70.2857C31.1138 70.2857 30.3471 69.5189 30.3471 68.5731L30.3471 19.893C30.3471 18.9471 31.1138 18.1804 32.0596 18.1804Z" fill="#252525"/>
<path d="M32.0596 16.0397C33.0054 16.0397 33.7722 15.273 33.7722 14.3272C33.7722 13.3814 33.0054 12.6147 32.0596 12.6147C31.1138 12.6147 30.3471 13.3814 30.3471 14.3272C30.3471 15.273 31.1138 16.0397 32.0596 16.0397Z" fill="#252525"/>
<path d="M125.76 7.9053C125.76 8.85111 124.993 9.61784 124.047 9.61784C123.102 9.61784 122.335 8.85111 122.335 7.9053C122.335 6.95949 123.102 6.19276 124.047 6.19276C124.993 6.19276 125.76 6.95949 125.76 7.9053Z" fill="#252525"/>
<path d="M16.4022 29.7467C16.4022 26.7447 18.2468 24.9444 19.7839 24.5298C20.5395 24.326 21.0994 24.4704 21.4521 24.7577C21.8034 25.0439 22.2737 25.738 22.2737 27.3002V30.2666C22.2737 31.2124 23.0405 31.9791 23.9863 31.9791C24.9321 31.9791 25.6988 31.2124 25.6988 30.2666V27.3002C25.6988 25.0671 25.007 23.2358 23.6152 22.1021C22.2248 20.9696 20.4605 20.7998 18.8919 21.2229C15.7808 22.0621 12.9771 25.2804 12.9771 29.7467L12.9771 33.3247C12.9771 35.0979 13.8395 36.5805 14.8213 37.7705C15.7725 38.9234 17.0077 40.0014 18.116 40.9685L18.2117 41.0521C19.3991 42.0886 20.4429 43.0097 21.205 43.9468C21.9622 44.8778 22.2737 45.6264 22.2737 46.291V54.7008C22.2737 56.394 21.7861 57.1769 21.4107 57.503C21.0533 57.8134 20.5137 57.9588 19.789 57.761C18.2975 57.3537 16.4022 55.4883 16.4022 52.2543V46.291C16.4022 44.8681 15.9681 43.0736 14.9184 41.5884C13.8229 40.0384 12.0449 38.8293 9.55199 38.8293H2.21254C1.26673 38.8293 0.5 39.596 0.5 40.5418C0.5 41.4876 1.26673 42.2543 2.21254 42.2543H9.55199C10.79 42.2543 11.5808 42.8003 12.1214 43.5652C12.7077 44.3948 12.9771 45.475 12.9771 46.291V52.2543C12.9771 56.8425 15.7301 60.2032 18.8869 61.0651C20.4863 61.5018 22.2709 61.2926 23.6567 60.0889C25.0244 58.9009 25.6988 57.0105 25.6988 54.7008V46.291C25.6988 44.4995 24.8482 42.998 23.8623 41.7857C22.8876 40.5874 21.6175 39.4786 20.4862 38.4911L20.4641 38.4718C19.2724 37.4315 18.2276 36.5172 17.4632 35.5907C16.7018 34.6679 16.4022 33.9464 16.4022 33.3247L16.4022 29.7467Z" fill="#252525"/>
</svg>
